{"asset":{"generator":"3D Builder","version":"2.0"},"scene":0,"scenes":[{"nodes":[0,1,2,3,4]}],"nodes":[{"mesh":0,"matrix":[1,0,0,0,0,-1.1920928955078125E-7,-0.99999988079071045,0,0,0.99999988079071045,-1.1920928955078125E-7,0,-0.0059583578258752823,-3.0236538967054472E-11,-0.00025364244356751442,1]},{"mesh":1,"matrix":[1,0,0,0,0,-1.1920928955078125E-7,-0.99999988079071045,0,0,0.99999988079071045,-1.1920928955078125E-7,0,-0.0059583578258752823,-3.0236538967054472E-11,-0.00025364244356751442,1]},{"mesh":2,"matrix":[1,0,0,0,0,-1.1920928955078125E-7,-0.99999988079071045,0,0,0.99999988079071045,-1.1920928955078125E-7,0,-0.0059583578258752823,-3.0236538967054472E-11,-0.00025364244356751442,1]},{"mesh":3,"matrix":[1,0,0,0,0,-1.1920928955078125E-7,-0.99999988079071045,0,0,0.99999988079071045,-1.1920928955078125E-7,0,-0.0059583578258752823,-3.0236538967054472E-11,-0.00025364244356751442,1]},{"mesh":4,"matrix":[1.7671339511871338,0,0,0,0,-1.1920928244535389E-7,-0.99999982118606567,0,0,0.99999982118606567,-1.1920928244535389E-7,0,-0.10169550031423569,0.039990555495023727,0.062744341790676117,1]}],"meshes":[{"primitives":[{"attributes":{"POSITION":0},"mode":4,"indices":1,"material":0}]},{"primitives":[{"attributes":{"POSITION":2},"mode":4,"indices":3,"material":0}]},{"primitives":[{"attributes":{"POSITION":4},"mode":4,"indices":5,"material":0}]},{"primitives":[{"attributes":{"POSITION":6},"mode":4,"indices":7,"material":0}]},{"primitives":[{"attributes":{"POSITION":8},"mode":4,"indices":11,"material":1},{"attributes":{"POSITION":9,"COLOR_0":10},"mode":4,"indices":12}]}],"materials":[{"name":"Green","pbrMetallicRoughness":{"baseColorFactor":[0.015208514407277107,0.49693304300308228,0.072271861135959625,1],"metallicFactor":0,"roughnessFactor":1},"alphaMode":"OPAQUE"},{"name":"Yellow","pbrMetallicRoughness":{"baseColorFactor":[0.99110221862792969,0.87962257862091064,0,1],"metallicFactor":0,"roughnessFactor":1},"alphaMode":"OPAQUE"}],"accessors":[{"bufferView":0,"byteOffset":0,"count":82,"componentType":5126,"type":"VEC3","min":[-0.019998999312520027,-0.019999999552965164,0],"max":[0.015504997223615646,0.019983997568488121,0.022095998749136925]},{"bufferView":1,"byteOffset":0,"count":480,"componentType":5125,"type":"SCALAR"},{"bufferView":2,"byteOffset":0,"count":74,"componentType":5126,"type":"VEC3","min":[-0.019998999312520027,-0.019999999552965164,0.022102551534771919],"max":[0.015504997223615646,0.019999995827674866,0.039990551769733429]},{"bufferView":3,"byteOffset":0,"count":432,"componentType":5125,"type":"SCALAR"},{"bufferView":4,"byteOffset":0,"count":74,"componentType":5126,"type":"VEC3","min":[0.015507637523114681,-0.019999999552965164,0.022102551534771919],"max":[0.051011636853218079,0.019999995827674866,0.039990551769733429]},{"bufferView":5,"byteOffset":0,"count":432,"componentType":5125,"type":"SCALAR"},{"bufferView":6,"byteOffset":0,"count":63,"componentType":5126,"type":"VEC3","min":[0.033259622752666473,-0.019999999552965164,0],"max":[0.051011625677347183,0.019983997568488121,0.022095998749136925]},{"bufferView":7,"byteOffset":0,"count":366,"componentType":5125,"type":"SCALAR"},{"bufferView":8,"byteOffset":0,"count":4,"componentType":5126,"type":"VEC3","min":[0.042998004704713821,0.042998004704713821,0],"max":[0.082998007535934448,0.082998007535934448,0]},{"bufferView":8,"byteOffset":48,"count":5,"componentType":5126,"type":"VEC3","min":[0.042998004704713821,0.042998004704713821,0],"max":[0.082998007535934448,0.082998007535934448,0.039998002350330353]},{"bufferView":9,"byteOffset":0,"count":5,"componentType":5121,"type":"VEC4","normalized":true},{"bufferView":10,"byteOffset":0,"count":6,"componentType":5125,"type":"SCALAR"},{"bufferView":10,"byteOffset":24,"count":12,"componentType":5125,"type":"SCALAR"}],"bufferViews":[{"buffer":0,"byteOffset":0,"byteLength":984,"byteStride":12,"target":34962},{"buffer":0,"byteOffset":984,"byteLength":1920,"target":34963},{"buffer":0,"byteOffset":2904,"byteLength":888,"byteStride":12,"target":34962},{"buffer":0,"byteOffset":3792,"byteLength":1728,"target":34963},{"buffer":0,"byteOffset":5520,"byteLength":888,"byteStride":12,"target":34962},{"buffer":0,"byteOffset":6408,"byteLength":1728,"target":34963},{"buffer":0,"byteOffset":8136,"byteLength":756,"byteStride":12,"target":34962},{"buffer":0,"byteOffset":8892,"byteLength":1464,"target":34963},{"buffer":0,"byteOffset":10356,"byteLength":108,"byteStride":12,"target":34962},{"buffer":0,"byteOffset":10464,"byteLength":20,"byteStride":4,"target":34962},{"buffer":0,"byteOffset":10484,"byteLength":72,"target":34963}],"buffers":[{"byteLength":10556,"uri":"house3.bin"}]}